<svg xmlns="http://www.w3.org/2000/svg" viewBox="0 0 589.88 606.17">
    <g data-name="Layer 2">
        <g data-name="Layer 5">
            <path d="M274.84 156.35q0 28.42-16.28 43.9t-46.26 15.48h-12.5V272h-44.51V102.42h57q31.21 0 46.87 14t15.68 39.93zm-75 22h8.11q10 0 15.94-5.8t5.92-16q0-17.16-18.48-17.16H199.8zM324.17 272V102.42h44.51V235h63.44v37zM280.92 416.42q0 42.8-20.39 65.06t-59.72 22.27q-38.76 0-59.44-22.38t-20.67-65.19q0-42.33 20.56-64.66T201 329.2q39.32 0 59.6 22.15t20.32 65.07zm-113.35 0q0 49.18 33.24 49.18 16.9 0 25.07-11.95t8.17-37.23q0-25.4-8.28-37.52T201 366.78q-33.43 0-33.43 49.64zM392.56 394.73L421 331.87h48.22L415 435.21v66.22h-44.86V436.6l-54.2-104.73h48.45z"/>
            <path fill="none" stroke="#000" stroke-miterlimit="10" stroke-width="34.5" d="M17.25 17.25h555.38v571.67H17.25z"/>
        </g>
    </g>
</svg>